<mxfile host="app.diagrams.net" modified="2023-09-17T19:15:22.357Z" agent="Mozilla/5.0 (Macintosh; Intel Mac OS X 10_15_7) AppleWebKit/537.36 (KHTML, like Gecko) Chrome/114.0.0.0 Safari/537.36" etag="L5UgprFMtPaLCat55yHv" version="21.7.4" type="github">
  <diagram id="R2lEEEUBdFMjLlhIrx00" name="Page-1">
    <mxGraphModel dx="954" dy="591" grid="1" gridSize="10" guides="1" tooltips="1" connect="1" arrows="1" fold="1" page="1" pageScale="1" pageWidth="850" pageHeight="1100" math="0" shadow="0" extFonts="Permanent Marker^https://fonts.googleapis.com/css?family=Permanent+Marker">
      <root>
        <mxCell id="0" />
        <mxCell id="1" parent="0" />
        <mxCell id="YspRP4q-O_zlmZPt2W4X-55" value="" style="group" vertex="1" connectable="0" parent="1">
          <mxGeometry x="50" y="120" width="280" height="116" as="geometry" />
        </mxCell>
        <mxCell id="YspRP4q-O_zlmZPt2W4X-38" value="" style="childLayout=tableLayout;recursiveResize=0;shadow=0;fillColor=none;strokeColor=#C0C0C0;strokeWidth=1;" vertex="1" parent="YspRP4q-O_zlmZPt2W4X-55">
          <mxGeometry y="30" width="280" height="87" as="geometry" />
        </mxCell>
        <mxCell id="YspRP4q-O_zlmZPt2W4X-39" value="" style="shape=tableRow;horizontal=0;startSize=0;swimlaneHead=0;swimlaneBody=0;top=0;left=0;bottom=0;right=0;dropTarget=0;collapsible=0;recursiveResize=0;expand=0;fontStyle=0;fillColor=none;" vertex="1" parent="YspRP4q-O_zlmZPt2W4X-38">
          <mxGeometry width="280" height="22" as="geometry" />
        </mxCell>
        <mxCell id="YspRP4q-O_zlmZPt2W4X-40" value="&lt;u&gt;PersonId&lt;/u&gt;" style="connectable=0;recursiveResize=0;strokeColor=none;fillColor=none;align=center;whiteSpace=wrap;html=1;" vertex="1" parent="YspRP4q-O_zlmZPt2W4X-39">
          <mxGeometry width="139" height="22" as="geometry">
            <mxRectangle width="139" height="22" as="alternateBounds" />
          </mxGeometry>
        </mxCell>
        <mxCell id="YspRP4q-O_zlmZPt2W4X-41" value="id" style="connectable=0;recursiveResize=0;strokeColor=none;fillColor=none;align=center;whiteSpace=wrap;html=1;" vertex="1" parent="YspRP4q-O_zlmZPt2W4X-39">
          <mxGeometry x="139" width="141" height="22" as="geometry">
            <mxRectangle width="141" height="22" as="alternateBounds" />
          </mxGeometry>
        </mxCell>
        <mxCell id="YspRP4q-O_zlmZPt2W4X-43" style="shape=tableRow;horizontal=0;startSize=0;swimlaneHead=0;swimlaneBody=0;top=0;left=0;bottom=0;right=0;dropTarget=0;collapsible=0;recursiveResize=0;expand=0;fontStyle=0;fillColor=none;" vertex="1" parent="YspRP4q-O_zlmZPt2W4X-38">
          <mxGeometry y="22" width="280" height="20" as="geometry" />
        </mxCell>
        <mxCell id="YspRP4q-O_zlmZPt2W4X-44" value="FirstName" style="connectable=0;recursiveResize=0;strokeColor=none;fillColor=none;align=center;whiteSpace=wrap;html=1;" vertex="1" parent="YspRP4q-O_zlmZPt2W4X-43">
          <mxGeometry width="139" height="20" as="geometry">
            <mxRectangle width="139" height="20" as="alternateBounds" />
          </mxGeometry>
        </mxCell>
        <mxCell id="YspRP4q-O_zlmZPt2W4X-45" value="name" style="connectable=0;recursiveResize=0;strokeColor=none;fillColor=none;align=center;whiteSpace=wrap;html=1;" vertex="1" parent="YspRP4q-O_zlmZPt2W4X-43">
          <mxGeometry x="139" width="141" height="20" as="geometry">
            <mxRectangle width="141" height="20" as="alternateBounds" />
          </mxGeometry>
        </mxCell>
        <mxCell id="YspRP4q-O_zlmZPt2W4X-47" style="shape=tableRow;horizontal=0;startSize=0;swimlaneHead=0;swimlaneBody=0;top=0;left=0;bottom=0;right=0;dropTarget=0;collapsible=0;recursiveResize=0;expand=0;fontStyle=0;fillColor=none;" vertex="1" parent="YspRP4q-O_zlmZPt2W4X-38">
          <mxGeometry y="42" width="280" height="23" as="geometry" />
        </mxCell>
        <mxCell id="YspRP4q-O_zlmZPt2W4X-48" value="LastName" style="connectable=0;recursiveResize=0;strokeColor=none;fillColor=none;align=center;whiteSpace=wrap;html=1;" vertex="1" parent="YspRP4q-O_zlmZPt2W4X-47">
          <mxGeometry width="139" height="23" as="geometry">
            <mxRectangle width="139" height="23" as="alternateBounds" />
          </mxGeometry>
        </mxCell>
        <mxCell id="YspRP4q-O_zlmZPt2W4X-49" value="name" style="connectable=0;recursiveResize=0;strokeColor=none;fillColor=none;align=center;whiteSpace=wrap;html=1;" vertex="1" parent="YspRP4q-O_zlmZPt2W4X-47">
          <mxGeometry x="139" width="141" height="23" as="geometry">
            <mxRectangle width="141" height="23" as="alternateBounds" />
          </mxGeometry>
        </mxCell>
        <mxCell id="YspRP4q-O_zlmZPt2W4X-56" style="shape=tableRow;horizontal=0;startSize=0;swimlaneHead=0;swimlaneBody=0;top=0;left=0;bottom=0;right=0;dropTarget=0;collapsible=0;recursiveResize=0;expand=0;fontStyle=0;fillColor=none;" vertex="1" parent="YspRP4q-O_zlmZPt2W4X-38">
          <mxGeometry y="65" width="280" height="22" as="geometry" />
        </mxCell>
        <mxCell id="YspRP4q-O_zlmZPt2W4X-57" value="Birthday" style="connectable=0;recursiveResize=0;strokeColor=none;fillColor=none;align=center;whiteSpace=wrap;html=1;" vertex="1" parent="YspRP4q-O_zlmZPt2W4X-56">
          <mxGeometry width="139" height="22" as="geometry">
            <mxRectangle width="139" height="22" as="alternateBounds" />
          </mxGeometry>
        </mxCell>
        <mxCell id="YspRP4q-O_zlmZPt2W4X-58" value="date" style="connectable=0;recursiveResize=0;strokeColor=none;fillColor=none;align=center;whiteSpace=wrap;html=1;" vertex="1" parent="YspRP4q-O_zlmZPt2W4X-56">
          <mxGeometry x="139" width="141" height="22" as="geometry">
            <mxRectangle width="141" height="22" as="alternateBounds" />
          </mxGeometry>
        </mxCell>
        <mxCell id="YspRP4q-O_zlmZPt2W4X-54" value="&lt;b&gt;Person&lt;/b&gt;" style="rounded=0;whiteSpace=wrap;html=1;" vertex="1" parent="YspRP4q-O_zlmZPt2W4X-55">
          <mxGeometry width="280" height="30" as="geometry" />
        </mxCell>
        <mxCell id="YspRP4q-O_zlmZPt2W4X-60" value="" style="group;container=1;recursiveResize=0;" vertex="1" connectable="0" parent="1">
          <mxGeometry x="530" y="310" width="280" height="50" as="geometry" />
        </mxCell>
        <mxCell id="YspRP4q-O_zlmZPt2W4X-61" value="" style="childLayout=tableLayout;recursiveResize=0;shadow=0;fillColor=none;strokeColor=#C0C0C0;strokeWidth=1;" vertex="1" parent="YspRP4q-O_zlmZPt2W4X-60">
          <mxGeometry y="30" width="280" height="22" as="geometry" />
        </mxCell>
        <mxCell id="YspRP4q-O_zlmZPt2W4X-62" value="" style="shape=tableRow;horizontal=0;startSize=0;swimlaneHead=0;swimlaneBody=0;top=0;left=0;bottom=0;right=0;dropTarget=0;collapsible=0;recursiveResize=0;expand=0;fontStyle=0;fillColor=none;" vertex="1" parent="YspRP4q-O_zlmZPt2W4X-61">
          <mxGeometry width="280" height="22" as="geometry" />
        </mxCell>
        <mxCell id="YspRP4q-O_zlmZPt2W4X-63" value="&lt;u&gt;GroupName&lt;/u&gt;" style="connectable=0;recursiveResize=0;strokeColor=none;fillColor=none;align=center;whiteSpace=wrap;html=1;" vertex="1" parent="YspRP4q-O_zlmZPt2W4X-62">
          <mxGeometry width="139" height="22" as="geometry">
            <mxRectangle width="139" height="22" as="alternateBounds" />
          </mxGeometry>
        </mxCell>
        <mxCell id="YspRP4q-O_zlmZPt2W4X-64" value="name" style="connectable=0;recursiveResize=0;strokeColor=none;fillColor=none;align=center;whiteSpace=wrap;html=1;" vertex="1" parent="YspRP4q-O_zlmZPt2W4X-62">
          <mxGeometry x="139" width="141" height="22" as="geometry">
            <mxRectangle width="141" height="22" as="alternateBounds" />
          </mxGeometry>
        </mxCell>
        <mxCell id="YspRP4q-O_zlmZPt2W4X-74" value="&lt;b&gt;Group&lt;/b&gt;" style="rounded=0;whiteSpace=wrap;html=1;autosize=1;" vertex="1" parent="YspRP4q-O_zlmZPt2W4X-60">
          <mxGeometry width="280" height="30" as="geometry" />
        </mxCell>
        <mxCell id="YspRP4q-O_zlmZPt2W4X-75" value="" style="group;resizeHeight=0;resizeWidth=0;autosize=1;" vertex="1" connectable="0" parent="1">
          <mxGeometry x="50" y="310" width="280" height="116" as="geometry" />
        </mxCell>
        <mxCell id="YspRP4q-O_zlmZPt2W4X-76" value="" style="childLayout=tableLayout;recursiveResize=0;shadow=0;fillColor=none;strokeColor=#C0C0C0;strokeWidth=1;" vertex="1" parent="YspRP4q-O_zlmZPt2W4X-75">
          <mxGeometry y="30" width="280" height="42" as="geometry" />
        </mxCell>
        <mxCell id="YspRP4q-O_zlmZPt2W4X-77" value="" style="shape=tableRow;horizontal=0;startSize=0;swimlaneHead=0;swimlaneBody=0;top=0;left=0;bottom=0;right=0;dropTarget=0;collapsible=0;recursiveResize=0;expand=0;fontStyle=0;fillColor=none;" vertex="1" parent="YspRP4q-O_zlmZPt2W4X-76">
          <mxGeometry width="280" height="22" as="geometry" />
        </mxCell>
        <mxCell id="YspRP4q-O_zlmZPt2W4X-78" value="&lt;u&gt;CourseId&lt;/u&gt;" style="connectable=0;recursiveResize=0;strokeColor=none;fillColor=none;align=center;whiteSpace=wrap;html=1;" vertex="1" parent="YspRP4q-O_zlmZPt2W4X-77">
          <mxGeometry width="139" height="22" as="geometry">
            <mxRectangle width="139" height="22" as="alternateBounds" />
          </mxGeometry>
        </mxCell>
        <mxCell id="YspRP4q-O_zlmZPt2W4X-79" value="id" style="connectable=0;recursiveResize=0;strokeColor=none;fillColor=none;align=center;whiteSpace=wrap;html=1;" vertex="1" parent="YspRP4q-O_zlmZPt2W4X-77">
          <mxGeometry x="139" width="141" height="22" as="geometry">
            <mxRectangle width="141" height="22" as="alternateBounds" />
          </mxGeometry>
        </mxCell>
        <mxCell id="YspRP4q-O_zlmZPt2W4X-80" style="shape=tableRow;horizontal=0;startSize=0;swimlaneHead=0;swimlaneBody=0;top=0;left=0;bottom=0;right=0;dropTarget=0;collapsible=0;recursiveResize=0;expand=0;fontStyle=0;fillColor=none;" vertex="1" parent="YspRP4q-O_zlmZPt2W4X-76">
          <mxGeometry y="22" width="280" height="20" as="geometry" />
        </mxCell>
        <mxCell id="YspRP4q-O_zlmZPt2W4X-81" value="CourseName" style="connectable=0;recursiveResize=0;strokeColor=none;fillColor=none;align=center;whiteSpace=wrap;html=1;" vertex="1" parent="YspRP4q-O_zlmZPt2W4X-80">
          <mxGeometry width="139" height="20" as="geometry">
            <mxRectangle width="139" height="20" as="alternateBounds" />
          </mxGeometry>
        </mxCell>
        <mxCell id="YspRP4q-O_zlmZPt2W4X-82" value="name" style="connectable=0;recursiveResize=0;strokeColor=none;fillColor=none;align=center;whiteSpace=wrap;html=1;" vertex="1" parent="YspRP4q-O_zlmZPt2W4X-80">
          <mxGeometry x="139" width="141" height="20" as="geometry">
            <mxRectangle width="141" height="20" as="alternateBounds" />
          </mxGeometry>
        </mxCell>
        <mxCell id="YspRP4q-O_zlmZPt2W4X-89" value="&lt;b&gt;Course&lt;/b&gt;" style="rounded=0;whiteSpace=wrap;html=1;" vertex="1" parent="YspRP4q-O_zlmZPt2W4X-75">
          <mxGeometry width="280" height="30" as="geometry" />
        </mxCell>
        <mxCell id="YspRP4q-O_zlmZPt2W4X-90" value="" style="group" vertex="1" connectable="0" parent="1">
          <mxGeometry x="530" y="400" width="280" height="116" as="geometry" />
        </mxCell>
        <mxCell id="YspRP4q-O_zlmZPt2W4X-91" value="" style="childLayout=tableLayout;recursiveResize=0;shadow=0;fillColor=none;strokeColor=#C0C0C0;strokeWidth=1;" vertex="1" parent="YspRP4q-O_zlmZPt2W4X-90">
          <mxGeometry y="30" width="280" height="87" as="geometry" />
        </mxCell>
        <mxCell id="YspRP4q-O_zlmZPt2W4X-92" value="" style="shape=tableRow;horizontal=0;startSize=0;swimlaneHead=0;swimlaneBody=0;top=0;left=0;bottom=0;right=0;dropTarget=0;collapsible=0;recursiveResize=0;expand=0;fontStyle=0;fillColor=none;" vertex="1" parent="YspRP4q-O_zlmZPt2W4X-91">
          <mxGeometry width="280" height="22" as="geometry" />
        </mxCell>
        <mxCell id="YspRP4q-O_zlmZPt2W4X-93" value="&lt;u&gt;StudentId&lt;/u&gt;" style="connectable=0;recursiveResize=0;strokeColor=none;fillColor=none;align=center;whiteSpace=wrap;html=1;" vertex="1" parent="YspRP4q-O_zlmZPt2W4X-92">
          <mxGeometry width="139" height="22" as="geometry">
            <mxRectangle width="139" height="22" as="alternateBounds" />
          </mxGeometry>
        </mxCell>
        <mxCell id="YspRP4q-O_zlmZPt2W4X-94" value="id" style="connectable=0;recursiveResize=0;strokeColor=none;fillColor=none;align=center;whiteSpace=wrap;html=1;" vertex="1" parent="YspRP4q-O_zlmZPt2W4X-92">
          <mxGeometry x="139" width="141" height="22" as="geometry">
            <mxRectangle width="141" height="22" as="alternateBounds" />
          </mxGeometry>
        </mxCell>
        <mxCell id="YspRP4q-O_zlmZPt2W4X-95" style="shape=tableRow;horizontal=0;startSize=0;swimlaneHead=0;swimlaneBody=0;top=0;left=0;bottom=0;right=0;dropTarget=0;collapsible=0;recursiveResize=0;expand=0;fontStyle=0;fillColor=none;" vertex="1" parent="YspRP4q-O_zlmZPt2W4X-91">
          <mxGeometry y="22" width="280" height="20" as="geometry" />
        </mxCell>
        <mxCell id="YspRP4q-O_zlmZPt2W4X-96" value="FirstName" style="connectable=0;recursiveResize=0;strokeColor=none;fillColor=none;align=center;whiteSpace=wrap;html=1;" vertex="1" parent="YspRP4q-O_zlmZPt2W4X-95">
          <mxGeometry width="139" height="20" as="geometry">
            <mxRectangle width="139" height="20" as="alternateBounds" />
          </mxGeometry>
        </mxCell>
        <mxCell id="YspRP4q-O_zlmZPt2W4X-97" value="name" style="connectable=0;recursiveResize=0;strokeColor=none;fillColor=none;align=center;whiteSpace=wrap;html=1;" vertex="1" parent="YspRP4q-O_zlmZPt2W4X-95">
          <mxGeometry x="139" width="141" height="20" as="geometry">
            <mxRectangle width="141" height="20" as="alternateBounds" />
          </mxGeometry>
        </mxCell>
        <mxCell id="YspRP4q-O_zlmZPt2W4X-98" style="shape=tableRow;horizontal=0;startSize=0;swimlaneHead=0;swimlaneBody=0;top=0;left=0;bottom=0;right=0;dropTarget=0;collapsible=0;recursiveResize=0;expand=0;fontStyle=0;fillColor=none;" vertex="1" parent="YspRP4q-O_zlmZPt2W4X-91">
          <mxGeometry y="42" width="280" height="23" as="geometry" />
        </mxCell>
        <mxCell id="YspRP4q-O_zlmZPt2W4X-99" value="LastName" style="connectable=0;recursiveResize=0;strokeColor=none;fillColor=none;align=center;whiteSpace=wrap;html=1;" vertex="1" parent="YspRP4q-O_zlmZPt2W4X-98">
          <mxGeometry width="139" height="23" as="geometry">
            <mxRectangle width="139" height="23" as="alternateBounds" />
          </mxGeometry>
        </mxCell>
        <mxCell id="YspRP4q-O_zlmZPt2W4X-100" value="name" style="connectable=0;recursiveResize=0;strokeColor=none;fillColor=none;align=center;whiteSpace=wrap;html=1;" vertex="1" parent="YspRP4q-O_zlmZPt2W4X-98">
          <mxGeometry x="139" width="141" height="23" as="geometry">
            <mxRectangle width="141" height="23" as="alternateBounds" />
          </mxGeometry>
        </mxCell>
        <mxCell id="YspRP4q-O_zlmZPt2W4X-101" style="shape=tableRow;horizontal=0;startSize=0;swimlaneHead=0;swimlaneBody=0;top=0;left=0;bottom=0;right=0;dropTarget=0;collapsible=0;recursiveResize=0;expand=0;fontStyle=0;fillColor=none;" vertex="1" parent="YspRP4q-O_zlmZPt2W4X-91">
          <mxGeometry y="65" width="280" height="22" as="geometry" />
        </mxCell>
        <mxCell id="YspRP4q-O_zlmZPt2W4X-102" value="Birthday" style="connectable=0;recursiveResize=0;strokeColor=none;fillColor=none;align=center;whiteSpace=wrap;html=1;" vertex="1" parent="YspRP4q-O_zlmZPt2W4X-101">
          <mxGeometry width="139" height="22" as="geometry">
            <mxRectangle width="139" height="22" as="alternateBounds" />
          </mxGeometry>
        </mxCell>
        <mxCell id="YspRP4q-O_zlmZPt2W4X-103" value="date" style="connectable=0;recursiveResize=0;strokeColor=none;fillColor=none;align=center;whiteSpace=wrap;html=1;" vertex="1" parent="YspRP4q-O_zlmZPt2W4X-101">
          <mxGeometry x="139" width="141" height="22" as="geometry">
            <mxRectangle width="141" height="22" as="alternateBounds" />
          </mxGeometry>
        </mxCell>
        <mxCell id="YspRP4q-O_zlmZPt2W4X-104" value="&lt;b&gt;Take&lt;/b&gt;" style="rounded=0;whiteSpace=wrap;html=1;" vertex="1" parent="YspRP4q-O_zlmZPt2W4X-90">
          <mxGeometry width="280" height="30" as="geometry" />
        </mxCell>
      </root>
    </mxGraphModel>
  </diagram>
</mxfile>
